<svg width="20" height="20" viewBox="0 0 20 20" fill="none" xmlns="http://www.w3.org/2000/svg">
<path d="M8.5 9V13.5M11.5 9V13.5M4 6H16M15.25 6L14.5997 15.1065C14.5728 15.4849 14.4035 15.8391 14.1258 16.0977C13.8482 16.3563 13.4829 16.5 13.1035 16.5H6.8965C6.5171 16.5 6.1518 16.3563 5.87416 16.0977C5.59653 15.8391 5.42719 15.4849 5.40025 15.1065L4.75 6H15.25ZM12.25 6V3.75C12.25 3.55109 12.171 3.36032 12.0303 3.21967C11.8897 3.07902 11.6989 3 11.5 3H8.5C8.30109 3 8.11032 3.07902 7.96967 3.21967C7.82902 3.36032 7.75 3.55109 7.75 3.75V6H12.25Z" stroke="#FF4848" stroke-width="1.5" stroke-linecap="round" stroke-linejoin="round"/>
</svg>
